<svg width="281" height="261" viewBox="0 0 281 261" fill="none" xmlns="http://www.w3.org/2000/svg">
<path d="M279.952 250.759L208.639 101.709C183.476 120.715 160.211 154.395 159.528 182.238L181.163 226.465C181.942 228.053 183.36 229.286 185.138 229.929L269.659 260.319C276.103 262.644 282.695 256.493 279.952 250.759ZM139.739 167.831C139.511 168.119 139.304 168.401 139.105 168.722L104.556 224.854C103.578 226.434 101.973 227.669 100.077 228.267L10.0487 256.667C3.36606 258.795 -2.39583 252.542 1.00974 246.885L147.969 3.86208C151.136 -1.34622 159.372 -1.27041 161.904 3.9904L206.212 96.6249C177.376 114.115 154.065 138.844 139.739 167.831Z" fill="black"/>
</svg>
